<svg width="16" height="18" viewBox="0 0 16 18" fill="none" xmlns="http://www.w3.org/2000/svg">
<path id="Vector" fill-rule="evenodd" clip-rule="evenodd" d="M16 8.18801V12.6816C16 15.4679 16 16.862 15.3476 17.4704C15.0364 17.7611 14.6436 17.9438 14.2249 17.9924C13.3476 18.0941 12.3227 17.1761 10.2738 15.341C9.36711 14.5302 8.91467 14.1243 8.39111 14.0181C8.13297 13.9653 7.86703 13.9653 7.60889 14.0181C7.08444 14.1243 6.632 14.5302 5.72622 15.341C3.67733 17.1761 2.65244 18.0941 1.77511 17.9915C1.35576 17.9428 0.962589 17.7603 0.652444 17.4704C-5.29819e-08 16.862 0 15.4688 0 12.6816V8.18711C0 4.3289 -1.05964e-07 2.39934 1.17156 1.19967C2.34311 0 4.22933 0 8 0C11.7716 0 13.6569 0 14.8284 1.19877C16 2.39844 16 4.3289 16 8.18801ZM4.66667 3.59992C4.66667 3.4209 4.73691 3.24921 4.86193 3.12263C4.98695 2.99605 5.15652 2.92493 5.33333 2.92493H10.6667C10.8435 2.92493 11.013 2.99605 11.1381 3.12263C11.2631 3.24921 11.3333 3.4209 11.3333 3.59992C11.3333 3.77893 11.2631 3.95062 11.1381 4.0772C11.013 4.20379 10.8435 4.2749 10.6667 4.2749H5.33333C5.15652 4.2749 4.98695 4.20379 4.86193 4.0772C4.73691 3.95062 4.66667 3.77893 4.66667 3.59992Z" fill="#12B579"/>
</svg>
