<svg width="31" height="31" viewBox="0 0 31 31" fill="none" xmlns="http://www.w3.org/2000/svg">
<path d="M9.36364 15.5L13.0455 19.1818L21.6364 10.5909M25.3182 19.1818C24.0909 20.4091 26.8523 23.7841 25.3182 25.3182C23.7841 26.8523 20.4091 24.0909 19.1818 25.3182C17.9545 26.5455 17.3409 29 15.5 29C13.6591 29 13.0455 26.5455 11.8182 25.3182C10.5909 24.0909 7.21591 26.8523 5.68182 25.3182C4.14773 23.7841 6.90909 20.4091 5.68182 19.1818C4.45455 17.9545 2 17.3409 2 15.5C2 13.6591 4.45455 13.0455 5.68182 11.8182C6.90909 10.5909 4.14773 7.21591 5.68182 5.68182C7.21591 4.14773 10.5909 6.90909 11.8182 5.68182C13.0455 4.45455 13.6591 2 15.5 2C17.3409 2 17.9545 4.45455 19.1818 5.68182C20.4091 6.90909 23.7841 4.14773 25.3182 5.68182C26.8523 7.21591 24.0909 10.5909 25.3182 11.8182C26.5455 13.0455 29 13.6591 29 15.5C29 17.3409 26.5455 17.9545 25.3182 19.1818Z" stroke="black" stroke-width="2.5"/>
</svg>
