<svg width="22" height="25" viewBox="0 0 22 25" fill="none" xmlns="http://www.w3.org/2000/svg">
<path d="M4.25 12.375H12.375M4.25 15.625H15.625M4.25 18.875H9.125M20.5 20.5V9.125L12.375 1H4.25C3.38805 1 2.5614 1.34241 1.9519 1.9519C1.34241 2.5614 1 3.38805 1 4.25V20.5C1 21.362 1.34241 22.1886 1.9519 22.7981C2.5614 23.4076 3.38805 23.75 4.25 23.75H17.25C18.112 23.75 18.9386 23.4076 19.5481 22.7981C20.1576 22.1886 20.5 21.362 20.5 20.5Z" stroke="black" stroke-width="1.5" stroke-linecap="round" stroke-linejoin="round"/>
<path d="M12.375 1V5.875C12.375 6.73695 12.7174 7.5636 13.3269 8.1731C13.9364 8.78259 14.763 9.125 15.625 9.125H20.5" stroke="black" stroke-width="1.5" stroke-linecap="round" stroke-linejoin="round"/>
</svg>
