<svg width="28" height="30" viewBox="0 0 28 30" fill="none" xmlns="http://www.w3.org/2000/svg">
<path d="M12.9833 8.11719V21.9887L7.79053 14.9803L12.9833 8.11719Z" fill="#23AD7C" stroke="#21B680"/>
<path d="M15.0167 21.9521L15.0167 8.08064L20.2095 15.089L15.0167 21.9521Z" fill="#23AD7C" stroke="#21B680"/>
<path d="M8.44413 1L1 8.3352L7.7905 14.9804L10.9497 11.8939C11.6276 11.3492 12.9832 9.78771 12.9832 7.89944C12.9832 6.01117 12.378 4.98231 12.0754 4.70391L8.44413 1Z" fill="#28CA8F" stroke="#28CA8F"/>
<path d="M19.5559 28.9609L27 21.6257L20.2095 14.9805L17.0503 18.0671C16.3724 18.6118 15.0168 20.1732 15.0168 22.0615C15.0168 23.9498 15.622 24.9786 15.9246 25.257L19.5559 28.9609Z" fill="#28CA8F" stroke="#28CA8F"/>
<path d="M21.3352 2.74284L19.5922 1.03613L16.433 4.0501C15.9972 4.49796 15.1039 5.82943 15.0168 7.57244C14.9296 9.31546 16.0214 10.8164 16.5782 11.349L20.2095 14.9803L26.9274 8.37133L25.2207 6.62831C24.5428 7.22142 22.8168 8.05177 21.3352 6.62831C19.8536 5.20485 20.7179 3.44488 21.3352 2.74284Z" fill="#12B579" stroke="#12B579"/>
<path d="M6.6648 27.2181L8.40782 28.9248L11.567 25.9108C12.0028 25.463 12.8961 24.1315 12.9832 22.3885C13.0704 20.6455 11.9786 19.1445 11.4218 18.612L7.7905 14.9807L1.07262 21.5896L2.77933 23.3326C3.45717 22.7395 5.18324 21.9092 6.6648 23.3326C8.14637 24.7561 7.28212 26.5161 6.6648 27.2181Z" fill="#12B579" stroke="#12B579"/>
<path d="M22.8783 9.77132L23.2821 10.1503C23.3936 10.255 23.3992 10.4302 23.2945 10.5417C23.1898 10.6533 23.0146 10.6588 22.9031 10.5541L22.4993 10.1751C22.3878 10.0705 22.3822 9.89523 22.4869 9.78372C22.5916 9.67221 22.7668 9.66666 22.8783 9.77132Z" fill="white"/>
<path d="M21.5322 8.50765L21.936 8.88667C22.0475 8.99133 22.0531 9.16657 21.9484 9.27808C21.8438 9.38958 21.6685 9.39513 21.557 9.29047L21.1532 8.91146C21.0417 8.8068 21.0362 8.63156 21.1408 8.52005C21.2455 8.40854 21.4207 8.40299 21.5322 8.50765Z" fill="white"/>
<path d="M20.1863 7.24496L20.5901 7.62397C20.7016 7.72863 20.7071 7.90387 20.6025 8.01538C20.4978 8.12689 20.3226 8.13244 20.2111 8.02778L19.8073 7.64876C19.6958 7.5441 19.6902 7.36886 19.7949 7.25735C19.8995 7.14585 20.0748 7.1403 20.1863 7.24496Z" fill="white"/>
<path d="M18.8402 5.98128L19.244 6.3603C19.3555 6.46496 19.3611 6.6402 19.2564 6.75171C19.1518 6.86322 18.9765 6.86877 18.865 6.7641L18.4612 6.38509C18.3497 6.28043 18.3441 6.10519 18.4488 5.99368C18.5535 5.88217 18.7287 5.87662 18.8402 5.98128Z" fill="white"/>
<path d="M17.4941 4.71761L17.898 5.09663C18.0095 5.20129 18.015 5.37653 17.9103 5.48804C17.8057 5.59954 17.6304 5.60509 17.5189 5.50043L17.1151 5.12142C17.0036 5.01676 16.9981 4.84152 17.1027 4.73001C17.2074 4.6185 17.3826 4.61295 17.4941 4.71761Z" fill="white"/>
</svg>
