<svg width="185" height="51" viewBox="0 0 185 51" fill="none" xmlns="http://www.w3.org/2000/svg">
<path d="M164.143 16.1818V36.026L156.714 26L164.143 16.1818Z" fill="#23AD7C" stroke="#21B680"/>
<path d="M167.052 35.9741V16.1299L174.48 26.1559L167.052 35.9741Z" fill="#23AD7C" stroke="#21B680"/>
<path d="M157.649 6L147 16.4935L156.714 26L161.234 21.5844C162.203 20.8052 164.143 18.5714 164.143 15.8701C164.143 13.1688 163.277 11.697 162.844 11.2987L157.649 6Z" fill="#28CA8F" stroke="#28CA8F"/>
<path d="M173.545 46L184.195 35.5065L174.481 26L169.961 30.4156C168.991 31.1948 167.052 33.4286 167.052 36.1299C167.052 38.8312 167.918 40.303 168.351 40.7013L173.545 46Z" fill="#28CA8F" stroke="#28CA8F"/>
<path d="M176.091 8.4935L173.597 6.05194L169.078 10.3636C168.455 11.0043 167.177 12.9091 167.052 15.4026C166.927 17.8961 168.489 20.0433 169.286 20.8052L174.481 26L184.091 16.5454L181.649 14.0519C180.68 14.9004 178.21 16.0883 176.091 14.0519C173.971 12.0156 175.208 9.49783 176.091 8.4935Z" fill="#12B579" stroke="#12B579"/>
<path d="M155.104 43.5065L157.597 45.9481L162.117 41.6364C162.74 40.9957 164.018 39.0909 164.143 36.5974C164.268 34.1039 162.706 31.9567 161.909 31.1948L156.714 26L147.104 35.4546L149.545 37.9481C150.515 37.0996 152.984 35.9117 155.104 37.9481C157.223 39.9844 155.987 42.5022 155.104 43.5065Z" fill="#12B579" stroke="#12B579"/>
<path d="M178.298 18.548L178.876 19.0902C179.036 19.2399 179.044 19.4906 178.894 19.6501C178.744 19.8096 178.493 19.8176 178.334 19.6678L177.756 19.1256C177.597 18.9759 177.589 18.7252 177.738 18.5657C177.888 18.4062 178.139 18.3982 178.298 18.548Z" fill="white"/>
<path d="M176.373 16.7406L176.95 17.2829C177.11 17.4326 177.118 17.6833 176.968 17.8428C176.818 18.0023 176.568 18.0103 176.408 17.8605L175.831 17.3183C175.671 17.1686 175.663 16.9179 175.813 16.7584C175.963 16.5989 176.213 16.5909 176.373 16.7406Z" fill="white"/>
<path d="M174.447 14.9333L175.025 15.4755C175.184 15.6252 175.192 15.8759 175.043 16.0354C174.893 16.1949 174.642 16.2029 174.483 16.0532L173.905 15.5109C173.745 15.3612 173.738 15.1105 173.887 14.951C174.037 14.7915 174.288 14.7835 174.447 14.9333Z" fill="white"/>
<path d="M172.522 13.1259L173.099 13.6681C173.259 13.8178 173.267 14.0685 173.117 14.228C172.967 14.3876 172.717 14.3955 172.557 14.2458L171.979 13.7036C171.82 13.5538 171.812 13.3032 171.962 13.1436C172.111 12.9841 172.362 12.9762 172.522 13.1259Z" fill="white"/>
<path d="M170.596 11.3185L171.174 11.8607C171.333 12.0105 171.341 12.2612 171.191 12.4207C171.042 12.5802 170.791 12.5881 170.632 12.4384L170.054 11.8962C169.894 11.7465 169.886 11.4958 170.036 11.3363C170.186 11.1767 170.437 11.1688 170.596 11.3185Z" fill="white"/>
<path d="M9.912 41V16.22H0.168V11.6H25.116V16.22H15.372V41H9.912ZM28.7096 41V18.572H33.9596V41H28.7096ZM31.3556 14.876C30.3756 14.876 29.5636 14.568 28.9196 13.952C28.3036 13.336 27.9956 12.594 27.9956 11.726C27.9956 10.83 28.3036 10.088 28.9196 9.5C29.5636 8.884 30.3756 8.576 31.3556 8.576C32.3356 8.576 33.1336 8.87 33.7496 9.458C34.3936 10.018 34.7156 10.732 34.7156 11.6C34.7156 12.524 34.4076 13.308 33.7916 13.952C33.1756 14.568 32.3636 14.876 31.3556 14.876ZM51.1403 41.294C48.7883 41.294 46.6883 40.804 44.8403 39.824C43.0203 38.816 41.5923 37.444 40.5563 35.708C39.5203 33.972 39.0023 31.998 39.0023 29.786C39.0023 27.546 39.5203 25.572 40.5563 23.864C41.5923 22.128 43.0203 20.77 44.8403 19.79C46.6883 18.81 48.7883 18.32 51.1403 18.32C53.3243 18.32 55.2423 18.768 56.8943 19.664C58.5743 20.532 59.8483 21.82 60.7163 23.528L56.6843 25.88C56.0123 24.816 55.1863 24.032 54.2063 23.528C53.2543 23.024 52.2183 22.772 51.0983 22.772C49.8103 22.772 48.6483 23.052 47.6123 23.612C46.5763 24.172 45.7643 24.984 45.1763 26.048C44.5883 27.084 44.2943 28.33 44.2943 29.786C44.2943 31.242 44.5883 32.502 45.1763 33.566C45.7643 34.602 46.5763 35.4 47.6123 35.96C48.6483 36.52 49.8103 36.8 51.0983 36.8C52.2183 36.8 53.2543 36.548 54.2063 36.044C55.1863 35.54 56.0123 34.756 56.6843 33.692L60.7163 36.044C59.8483 37.724 58.5743 39.026 56.8943 39.95C55.2423 40.846 53.3243 41.294 51.1403 41.294ZM69.3335 36.002L69.4595 29.408L81.1775 18.572H87.4775L77.5235 28.568L74.7515 30.878L69.3335 36.002ZM65.0495 41V9.836H70.2995V41H65.0495ZM81.9755 41L73.7855 30.878L77.1035 26.678L88.3595 41H81.9755ZM101.39 41.294C98.8983 41.294 96.7143 40.804 94.8383 39.824C92.9903 38.816 91.5483 37.444 90.5123 35.708C89.5043 33.972 89.0003 31.998 89.0003 29.786C89.0003 27.546 89.4903 25.572 90.4703 23.864C91.4783 22.128 92.8503 20.77 94.5863 19.79C96.3503 18.81 98.3523 18.32 100.592 18.32C102.776 18.32 104.722 18.796 106.43 19.748C108.138 20.7 109.482 22.044 110.462 23.78C111.442 25.516 111.932 27.56 111.932 29.912C111.932 30.136 111.918 30.388 111.89 30.668C111.89 30.948 111.876 31.214 111.848 31.466H93.1583V27.98H109.076L107.018 29.072C107.046 27.784 106.78 26.65 106.22 25.67C105.66 24.69 104.89 23.92 103.91 23.36C102.958 22.8 101.852 22.52 100.592 22.52C99.3043 22.52 98.1703 22.8 97.1903 23.36C96.2383 23.92 95.4823 24.704 94.9223 25.712C94.3903 26.692 94.1243 27.854 94.1243 29.198V30.038C94.1243 31.382 94.4323 32.572 95.0483 33.608C95.6643 34.644 96.5323 35.442 97.6523 36.002C98.7723 36.562 100.06 36.842 101.516 36.842C102.776 36.842 103.91 36.646 104.918 36.254C105.926 35.862 106.822 35.246 107.606 34.406L110.42 37.64C109.412 38.816 108.138 39.726 106.598 40.37C105.086 40.986 103.35 41.294 101.39 41.294ZM125.417 41.294C122.953 41.294 121.049 40.664 119.705 39.404C118.361 38.116 117.689 36.226 117.689 33.734V13.616H122.939V33.608C122.939 34.672 123.205 35.498 123.737 36.086C124.297 36.674 125.067 36.968 126.047 36.968C127.223 36.968 128.203 36.66 128.987 36.044L130.457 39.782C129.841 40.286 129.085 40.664 128.189 40.916C127.293 41.168 126.369 41.294 125.417 41.294ZM113.993 22.94V18.74H128.945V22.94H113.993Z" fill="black"/>
</svg>
