<svg width="26" height="24" viewBox="0 0 26 24" fill="none" xmlns="http://www.w3.org/2000/svg">
<path id="Vector" d="M9.69622 4.74881C11.148 2.2496 11.8733 1 12.9583 1C14.0434 1 14.7687 2.2496 16.2204 4.74881L16.5963 5.39561C17.0088 6.10622 17.215 6.46152 17.5358 6.69582C17.8567 6.93012 18.2577 7.01702 19.0598 7.19082L19.7885 7.34922C22.6072 7.96192 24.0154 8.26772 24.3511 9.30283C24.6857 10.3368 23.7255 11.4159 21.804 13.573L21.3067 14.1307C20.7613 14.7434 20.4874 15.0503 20.3648 15.4287C20.2422 15.8082 20.2835 16.2174 20.366 17.0347L20.4416 17.7795C20.7315 20.6582 20.877 22.097 19.9993 22.7361C19.1216 23.3763 17.8017 22.7922 15.164 21.6262L14.48 21.3248C13.7306 20.9926 13.3559 20.8276 12.9583 20.8276C12.5607 20.8276 12.1861 20.9926 11.4367 21.3248L10.7538 21.6262C8.11501 22.7922 6.79504 23.3752 5.9185 22.7372C5.03967 22.097 5.18518 20.6582 5.47507 17.7795L5.55069 17.0358C5.63319 16.2174 5.67444 15.8082 5.55069 15.4298C5.42924 15.0503 5.15539 14.7434 4.60999 14.1318L4.11271 13.573C2.19119 11.417 1.231 10.3379 1.56558 9.30283C1.9013 8.26772 3.31064 7.96082 6.12933 7.34922L6.85806 7.19082C7.65898 7.01702 8.05887 6.93012 8.38084 6.69582C8.70166 6.46152 8.90791 6.10622 9.3204 5.39561L9.69622 4.74881Z" fill="#12B579" stroke="#12B579" stroke-width="1.5"/>
</svg>
