<svg width="26" height="24" viewBox="0 0 26 24" fill="none" xmlns="http://www.w3.org/2000/svg">
<path id="Vector" d="M9.52407 4.74881C11.0339 2.2496 11.7882 1 12.9167 1C14.0451 1 14.7995 2.2496 16.3093 4.74881L16.7001 5.39561C17.1291 6.10622 17.3436 6.46152 17.6773 6.69582C18.0109 6.93012 18.428 7.01702 19.2621 7.19082L20.02 7.34922C22.9515 7.96192 24.416 8.26772 24.7651 9.30283C25.1131 10.3368 24.1145 11.4159 22.1161 13.573L21.5989 14.1307C21.0317 14.7434 20.7469 15.0503 20.6194 15.4287C20.4919 15.8082 20.5348 16.2174 20.6206 17.0347L20.6993 17.7795C21.0007 20.6582 21.1521 22.097 20.2393 22.7361C19.3265 23.3763 17.9537 22.7922 15.2106 21.6262L14.4992 21.3248C13.7198 20.9926 13.3302 20.8276 12.9167 20.8276C12.5032 20.8276 12.1135 20.9926 11.3342 21.3248L10.624 21.6262C7.87961 22.7922 6.50684 23.3752 5.59524 22.7372C4.68125 22.097 4.83259 20.6582 5.13407 17.7795L5.21272 17.0358C5.29852 16.2174 5.34142 15.8082 5.21272 15.4298C5.08641 15.0503 4.80161 14.7434 4.23439 14.1318L3.71722 13.573C1.71884 11.417 0.720245 10.3379 1.0682 9.30283C1.41735 8.26772 2.88307 7.96082 5.8145 7.34922L6.57238 7.19082C7.40534 7.01702 7.82122 6.93012 8.15607 6.69582C8.48973 6.46152 8.70422 6.10622 9.13321 5.39561L9.52407 4.74881Z" stroke="black" stroke-opacity="0.2" stroke-width="1.5"/>
</svg>
