<svg width="123" height="120" viewBox="0 0 123 120" fill="none" xmlns="http://www.w3.org/2000/svg">
<path d="M90.5292 23.6872L83.7485 18.9927C82.8417 18.3653 81.5979 18.5914 80.97 19.4979C80.3421 20.4047 80.5686 21.6485 81.4752 22.2764L88.2559 26.9709C89.1539 27.5926 90.413 27.3627 91.0342 26.466C91.6618 25.5587 91.4358 24.3149 90.5292 23.6872Z" fill="black"/>
<path d="M104.091 33.0749L97.3103 28.3807C96.4036 27.7528 95.16 27.9791 94.5318 28.8857C93.9037 29.7925 94.1298 31.0363 95.0365 31.6642C95.0365 31.6642 101.804 36.3491 101.817 36.3584C102.681 36.9564 103.965 36.7648 104.596 35.8535C105.224 34.9469 104.998 33.7028 104.091 33.0749Z" fill="black"/>
<path d="M39.9465 30.9315L31.9177 29.0473C30.8444 28.7957 29.7697 29.4614 29.5173 30.5351C29.2655 31.6089 29.9316 32.6833 31.0051 32.9354L39.034 34.8196C39.1876 34.8555 39.3407 34.8729 39.4923 34.8729C40.3982 34.8729 41.2184 34.2517 41.4346 33.3318C41.6862 32.2578 41.0201 31.1831 39.9465 30.9315Z" fill="black"/>
<path d="M56.005 34.7L47.9762 32.8159C46.9026 32.5642 45.8282 33.2299 45.5758 34.3037C45.3239 35.3774 45.9901 36.4519 47.0636 36.7038L55.0925 38.5879C55.246 38.6238 55.3991 38.6413 55.5508 38.6413C56.4566 38.6413 57.2768 38.0203 57.4931 37.1003C57.7447 36.0264 57.0785 34.9519 56.005 34.7Z" fill="black"/>
<path d="M59.1364 44.1601L40.9443 39.8911C39.8711 39.6395 38.7964 40.3052 38.544 41.3789C38.2921 42.4527 38.9583 43.5272 40.0318 43.779L56.28 47.5918L43.171 103.457L12.8273 96.3365L25.936 40.4714L32.113 41.9207C33.1867 42.1726 34.261 41.5064 34.5131 40.4329C34.7652 39.3594 34.0988 38.2847 33.025 38.0328L24.9043 36.1274C23.8332 35.8757 22.7566 36.5414 22.5042 37.6152L8.48298 97.3682C8.2311 98.4419 8.89727 99.5164 9.97078 99.7683L44.2022 107.801C44.3529 107.836 44.5062 107.854 44.6586 107.854C45.0274 107.854 45.392 107.751 45.7106 107.554C46.1607 107.275 46.4815 106.829 46.6028 106.313L60.6242 46.5602C60.8759 45.4864 60.2097 44.412 59.1364 44.1601Z" fill="black"/>
<path d="M48.8928 66.688C48.5577 65.8902 47.748 65.3997 46.885 65.4719L39.4142 66.0984L36.5098 59.187C36.175 58.3893 35.3631 57.8985 34.502 57.9709C33.6402 58.0432 32.9224 58.6624 32.7248 59.5047L31.0122 66.8033L23.5413 67.43C22.6795 67.5022 21.9617 68.1215 21.7641 68.9634C21.5665 69.8057 21.9337 70.6794 22.6735 71.1275L29.0857 75.0115L27.373 82.3104C27.1754 83.1526 27.5426 84.0264 28.2824 84.4744C28.6023 84.6681 28.9603 84.7633 29.3165 84.7633C29.7848 84.7633 30.2498 84.599 30.6215 84.2782L36.297 79.3802L42.7093 83.2645C43.4487 83.7125 44.3933 83.6336 45.0484 83.0684C45.7034 82.5032 45.9196 81.5806 45.5847 80.7833L42.6804 73.8718L48.3561 68.9737C49.0119 68.408 49.2279 67.4855 48.8928 66.688ZM38.4373 74.0811L39.523 76.6646C39.523 76.6646 37.1263 75.2129 37.1258 75.2125C35.4674 74.2078 33.8019 76.2585 32.6655 77.2394L33.3056 74.5116C33.5031 73.6694 33.136 72.7956 32.3961 72.3476L29.9994 70.8954C29.9994 70.8954 32.7879 70.6617 32.7918 70.6615C34.7305 70.4988 34.867 67.8564 35.2089 66.3997C35.2089 66.3997 36.2919 68.9771 36.2943 68.9828C37.05 70.7806 39.5991 70.0903 41.0945 69.965C39.9428 70.9595 37.6625 72.2373 38.4373 74.0811Z" fill="black"/>
<path d="M121.609 29.2785C119.907 28.1004 119.331 25.8237 120.268 23.9826C120.722 23.0924 120.447 22.0038 119.625 21.435L109.412 14.3645C108.591 13.796 107.476 13.9218 106.801 14.6595C106.019 15.5165 104.899 16.0081 103.731 16.0081C102.886 16.0081 102.071 15.7528 101.373 15.269C99.671 14.0909 99.095 11.8142 100.032 9.97314C100.486 9.08285 100.211 7.99426 99.3897 7.42545L89.1774 0.355043C88.3555 -0.213528 87.2401 -0.0877104 86.5663 0.649972C85.7837 1.50701 84.664 1.99808 83.4958 1.99856C82.6512 1.99856 81.836 1.74334 81.1375 1.25944C80.2315 0.632032 78.9871 0.857834 78.3593 1.76439L66.8144 18.4397C66.6283 18.3204 66.4205 18.2292 66.1947 18.1761L54.1016 15.3388C53.129 15.1104 52.1371 15.6366 51.7802 16.5699C51.0504 18.479 48.9374 19.5915 46.9523 19.1255C44.9378 18.6526 43.5674 16.7455 43.7652 14.6889C43.8609 13.6943 43.2064 12.782 42.2336 12.5536L30.1408 9.716C29.1685 9.48757 28.1765 10.0138 27.8194 10.9471C27.0899 12.854 24.9749 13.9684 22.9915 13.503C21.9191 13.2511 20.8437 13.9172 20.5914 14.9908C20.5914 14.9908 17.6014 27.7323 17.5988 27.7438L0.0532286 102.516C-0.198645 103.59 0.467517 104.665 1.54103 104.916C3.55602 105.389 4.92614 107.297 4.72833 109.353C4.63265 110.348 5.28709 111.26 6.25966 111.488L18.3522 114.326C19.3267 114.554 20.3168 114.028 20.6736 113.095C22.355 108.697 29.1381 110.306 28.6891 114.976C28.5934 115.97 29.2479 116.883 30.2207 117.111L42.3133 119.949C43.2741 120.173 44.2819 119.64 44.6347 118.717C45.2444 117.122 46.8011 116.051 48.5085 116.051C49.3892 116.051 50.1458 116.427 50.971 115.915C51.4209 115.636 51.7419 115.19 51.8632 114.674L54.4891 103.484C54.4891 103.484 60.1196 107.382 60.1215 107.384C60.9154 107.933 62.0606 107.824 62.7328 107.089C63.5152 106.232 64.6346 105.741 65.8029 105.741C66.6475 105.741 67.4629 105.996 68.1613 106.48C69.0681 107.107 70.3117 106.881 70.9396 105.974L122.113 32.057C122.741 31.1504 122.515 29.9061 121.609 29.2785ZM54.2791 86.8925C54.2791 86.8925 51.2698 99.7171 51.2695 99.718L48.3738 112.058C45.6766 112.104 43.1852 113.509 41.721 115.708L32.6378 113.577C32.2206 110.266 29.7741 107.44 26.4136 106.652C23.1312 105.882 19.6279 107.281 17.7602 110.086L8.67722 107.954C8.34283 105.302 6.706 102.96 4.33987 101.729L21.032 30.595L22.9762 31.0511C23.1295 31.087 23.2826 31.1045 23.434 31.1045C24.3398 31.1045 25.16 30.4833 25.3763 29.5633C25.6281 28.4896 24.962 27.4151 23.8882 27.1632L21.9445 26.7071L24.0798 17.6073C26.777 17.5621 29.2682 16.1571 30.7326 13.9577L39.8158 16.0892C40.233 19.3999 42.6793 22.2255 46.0397 23.0144C49.3217 23.7843 52.8262 22.3853 54.6931 19.5807L63.7764 21.7119C63.8022 21.7184 63.8599 22.2358 63.8714 22.293C63.99 22.8811 64.1809 23.4736 64.4311 24.0271C65.1819 25.6903 66.4915 27.0965 68.1135 27.9382L65.9777 37.0401L64.0335 36.584C62.9622 36.3324 61.8858 36.998 61.6334 38.0718C61.3816 39.1456 62.0477 40.22 63.1215 40.4719L65.0652 40.928L61.8896 54.4613C61.8896 54.4613 61.5428 55.9395 61.5425 55.9405L59.2108 65.8767C59.2106 65.876 54.2791 86.8918 54.2791 86.8925ZM112.514 38.9076L110.872 37.7706C109.965 37.1428 108.721 37.3693 108.094 38.2756C107.466 39.1824 107.692 40.4262 108.599 41.0541L110.24 42.1908L68.6515 102.261C67.7463 101.922 66.7843 101.746 65.8019 101.746C64.1163 101.746 62.4814 102.27 61.1227 103.22L55.4689 99.3054L57.498 90.6585L66.3291 96.7723C67.2261 97.3928 68.4864 97.1641 69.1074 96.2671L94.7858 59.1771C95.4137 58.2703 95.1877 57.0265 94.2811 56.3986C93.3743 55.7707 92.1305 55.9969 91.5026 56.9035L66.9603 92.3522L58.4782 86.4797L62.3716 69.8878L69.3851 67.431L73.9286 73.3942C74.314 73.8999 74.9062 74.1809 75.5174 74.1809C75.7379 74.1809 75.9608 74.1446 76.1773 74.0685C76.9937 73.7827 77.5333 73.0036 77.5135 72.1384L77.3424 64.6437L84.4179 62.1654C85.2342 61.8795 85.7739 61.1004 85.754 60.2355C85.7344 59.3708 85.1601 58.6169 84.3313 58.3683L77.1504 56.2144L76.9793 48.7192C76.9597 47.8542 76.3854 47.1005 75.5566 46.852C74.7278 46.6035 73.8337 46.917 73.3411 47.6282L69.0744 53.7918L66.3403 52.9718L71.4809 31.0655L73.997 27.4311L99.6229 45.1726L96.1483 50.1919C95.5204 51.0987 95.7465 52.3425 96.653 52.9704C97.5598 53.5983 98.8034 53.3718 99.4315 52.4655C99.4315 52.4655 104.027 45.8273 104.043 45.805C104.66 44.9128 104.426 43.6417 103.538 43.0265C103.538 43.0265 74.6804 23.0479 74.6285 23.0117C73.731 22.3903 72.4702 22.6207 71.85 23.5167L70.9834 24.7686C70.9595 24.7622 70.9365 24.7538 70.9123 24.7481C69.9278 24.5163 69.0538 23.9233 68.4716 23.0971C68.4673 23.0912 68.4637 23.0847 68.4594 23.0785L73.0522 16.4446C73.0522 16.4446 74.6936 17.5808 74.6936 17.5813C75.5657 18.185 76.8439 17.9831 77.4721 17.0761C78.1 16.1695 77.8739 14.9255 76.9674 14.2976L75.3258 13.1609L80.6457 5.47672C81.5509 5.81638 82.5131 5.99195 83.4955 5.99195C85.1811 5.99195 86.8158 5.46763 88.1744 4.51826L95.8443 9.82842C95.02 13.0619 96.2607 16.5872 99.099 18.5522C101.874 20.4736 105.644 20.4595 108.41 18.5278L116.08 23.8379C115.42 26.4284 116.085 29.2069 117.835 31.2195L112.514 38.9076ZM73.3813 66.0863C73.3813 66.0863 71.6835 63.8584 71.6828 63.857C71.1652 63.1779 70.2395 62.9002 69.4344 63.1827L66.7898 64.1088C67.6602 62.8514 69.5475 61.0548 68.3314 59.4581L66.6331 57.2288C66.6331 57.2288 69.3148 58.0332 69.3176 58.034C71.1891 58.5951 72.2683 56.1952 73.1278 54.9541C73.1278 54.9541 73.1917 57.7529 73.1917 57.7555C73.2361 59.7035 75.8618 59.9968 77.2984 60.4278L74.6536 61.354C73.8372 61.6398 73.2976 62.4191 73.3175 63.2843L73.3813 66.0863Z" fill="black"/>
</svg>
