<svg width="20" height="24" viewBox="0 0 20 24" fill="none" xmlns="http://www.w3.org/2000/svg">
<path fill-rule="evenodd" clip-rule="evenodd" d="M9.75 0C8.34626 0 7 0.557635 6.00741 1.55023C5.01481 2.54283 4.45718 3.88908 4.45718 5.29282C4.45718 6.69657 5.01481 8.04282 6.00741 9.03541C7 10.028 8.34626 10.5856 9.75 10.5856C11.1537 10.5856 12.5 10.028 13.4926 9.03541C14.4852 8.04282 15.0428 6.69657 15.0428 5.29282C15.0428 3.88908 14.4852 2.54283 13.4926 1.55023C12.5 0.557635 11.1537 0 9.75 0ZM6.12859 5.29282C6.12859 4.33237 6.51013 3.41125 7.18928 2.7321C7.86842 2.05296 8.78954 1.67142 9.75 1.67142C10.7105 1.67142 11.6316 2.05296 12.3107 2.7321C12.9899 3.41125 13.3714 4.33237 13.3714 5.29282C13.3714 6.25328 12.9899 7.1744 12.3107 7.85354C11.6316 8.53269 10.7105 8.91423 9.75 8.91423C8.78954 8.91423 7.86842 8.53269 7.18928 7.85354C6.51013 7.1744 6.12859 6.25328 6.12859 5.29282ZM9.75 12.2571C7.17267 12.2571 4.79703 12.8432 3.03759 13.8327C1.30377 14.8088 6.22903e-05 16.2863 6.22903e-05 18.107V18.2207C-0.00105199 19.5155 -0.00216636 21.1401 1.423 22.3012C2.12388 22.8717 3.10556 23.2784 4.43155 23.5458C5.75977 23.8155 7.49247 23.957 9.75 23.957C12.0075 23.957 13.7391 23.8155 15.0696 23.5458C16.3956 23.2784 17.3761 22.8717 18.0781 22.3012C19.5033 21.1401 19.501 19.5155 19.4999 18.2207V18.107C19.4999 16.2863 18.1962 14.8088 16.4635 13.8327C14.703 12.8432 12.3284 12.2571 9.75 12.2571ZM1.67148 18.107C1.67148 17.1588 2.36456 16.1292 3.85658 15.2901C5.32297 14.4656 7.40444 13.9285 9.75111 13.9285C12.0956 13.9285 14.177 14.4656 15.6434 15.2901C17.1366 16.1292 17.8285 17.1588 17.8285 18.107C17.8285 19.5645 17.7839 20.3846 17.0218 21.0041C16.6095 21.3407 15.9186 21.6694 14.7375 21.9078C13.5597 22.1463 11.9496 22.2856 9.75 22.2856C7.55041 22.2856 5.93917 22.1463 4.76249 21.9078C3.58135 21.6694 2.8905 21.3407 2.47822 21.0053C1.71605 20.3846 1.67148 19.5645 1.67148 18.107Z" fill="black"/>
</svg>
