<svg width="24" height="22" viewBox="0 0 24 22" fill="none" xmlns="http://www.w3.org/2000/svg">
<path id="Vector" d="M11.9583 0C13.4778 0 14.935 0.579462 16.0095 1.61091C17.0839 2.64236 17.6875 4.04131 17.6875 5.5C17.6875 6.95869 17.0839 8.35764 16.0095 9.38909C14.935 10.4205 13.4778 11 11.9583 11C10.4389 11 8.98163 10.4205 7.9072 9.38909C6.83277 8.35764 6.22917 6.95869 6.22917 5.5C6.22917 4.04131 6.83277 2.64236 7.9072 1.61091C8.98163 0.579462 10.4389 0 11.9583 0ZM11.9583 13.75C18.2891 13.75 23.4167 16.2113 23.4167 19.25V22H0.5V19.25C0.5 16.2113 5.6276 13.75 11.9583 13.75Z" fill="#12B579"/>
</svg>
