<svg width="23" height="22" viewBox="0 0 23 22" fill="none" xmlns="http://www.w3.org/2000/svg">
<path id="Vector" d="M11.4583 0.8C12.7759 0.8 14.0333 1.30278 14.9554 2.18802C15.8765 3.0722 16.3875 4.26426 16.3875 5.5C16.3875 6.73574 15.8765 7.9278 14.9554 8.81198C14.0333 9.69722 12.7759 10.2 11.4583 10.2C10.1407 10.2 8.88335 9.69722 7.96123 8.81198C7.04021 7.9278 6.52917 6.73574 6.52917 5.5C6.52917 4.26426 7.04021 3.0722 7.96123 2.18802C8.88335 1.30278 10.1407 0.8 11.4583 0.8ZM11.4583 14.55C14.5309 14.55 17.2721 15.149 19.2153 16.0817C21.2159 17.042 22.1167 18.2139 22.1167 19.25V21.2H0.8V19.25C0.8 18.2139 1.70072 17.042 3.70133 16.0817C5.64452 15.149 8.38573 14.55 11.4583 14.55Z" stroke="black" stroke-opacity="0.2" stroke-width="1.6"/>
</svg>
