<svg width="20" height="20" viewBox="0 0 20 20" fill="none" xmlns="http://www.w3.org/2000/svg">
<path d="M12.2653 19.4243C11.8815 19.8081 11.4059 20 10.8386 20C10.2712 20 9.79558 19.8081 9.41177 19.4243L0.600757 10.6133C0.417194 10.4297 0.271011 10.2128 0.162209 9.96245C0.0534061 9.71214 -0.000661396 9.44514 6.1052e-06 9.16145V2.0025C6.1052e-06 1.45181 0.196251 0.980559 0.588742 0.588736C0.981232 0.196913 1.45249 0.000667501 2.00251 0H9.16145C9.44514 0 9.71214 0.0544014 9.96246 0.163204C10.2128 0.272007 10.4297 0.417856 10.6133 0.600751L19.4243 9.4368C19.8081 9.82061 20 10.2922 20 10.8516C20 11.4109 19.8081 11.8822 19.4243 12.2653L12.2653 19.4243ZM10.8386 18.178L18.125 10.8516L9.16145 1.875L1.79682 1.69496V9.16145L10.8386 18.178ZM4.50564 6.00751C4.92282 6.00751 5.2776 5.86166 5.56997 5.56996C5.86233 5.27826 6.00818 4.92349 6.00751 4.50563C6.00751 4.08844 5.86166 3.734 5.56997 3.4423C5.27827 3.1506 4.92349 3.00442 4.50564 3.00375C4.08845 3.00375 3.73401 3.14994 3.44231 3.4423C3.15061 3.73467 3.00443 4.08911 3.00376 4.50563C3.00376 4.92282 3.14994 5.2776 3.44231 5.56996C3.73467 5.86233 4.08912 6.00818 4.50564 6.00751Z" fill="black"/>
</svg>
