<svg width="307" height="308" viewBox="0 0 307 308" fill="none" xmlns="http://www.w3.org/2000/svg">
<path d="M85.5517 239.166L85.857 197.908L114.969 156.256L129.989 178.271L96.8582 240.807L92.4323 242.562L85.5517 239.166Z" fill="#CA2C31"/>
<path d="M94.7089 199.562L92.6485 242.626L117.335 234.117L129.671 196.064L123.605 189.998L114.867 170.958L94.7089 199.562Z" fill="#A02422"/>
<path d="M184.207 182.278L178.039 197.909L189.561 230.009C189.561 230.009 218.673 241.011 219.08 240.604C219.487 240.197 225.045 235.453 225.045 235.453L222.883 196.662L192.538 157.058L184.207 182.278Z" fill="#A02422"/>
<path d="M189.638 209.126C189.638 209.126 194.471 201.825 196.735 195.441C198.998 189.056 201.262 180.637 201.262 180.637L216.384 199.676L219.03 240.603C219.03 240.603 217.351 240.425 207.253 236.686C199.202 233.697 196.353 232.603 196.353 232.603L189.638 209.126Z" fill="#CA2C31"/>
<path d="M132.279 215.154C132.279 215.154 124.368 221.844 126.479 239.955C128.412 256.489 140.024 274.943 142.568 280.132C145.111 285.321 142.733 289.276 145.556 289.989C148.38 290.701 152.844 286.033 157.779 279.699C162.713 273.366 165.778 266.765 165.778 266.765C165.778 266.765 166.147 267.617 166.656 269.754C166.834 270.517 166.491 272.208 167.266 272.832C169.111 274.32 183.419 260.088 183.088 236.966C182.745 212 166.389 207.6 166.389 207.6L132.279 215.154Z" fill="#F7D74D"/>
<path d="M140.367 218.842C140.367 218.842 132.914 227.134 136.514 243.757C140.113 260.38 148.799 275.12 150.211 275.285C151.61 275.464 159.356 258.943 163.146 256.908C165.753 255.521 166.745 258.574 167.813 258.574C168.704 258.574 174.719 254.059 174.007 236.304C173.308 218.537 158.313 207.586 158.313 207.586L140.367 218.842Z" fill="#FBF0B4"/>
<path d="M130.434 201.177C130.434 201.177 130.002 208.655 130.612 212.089C131.223 215.523 131.401 215.701 132.1 216.223C132.8 216.744 140.965 221.984 152.933 221.768C167.623 221.501 175.266 215.79 176.233 214.824C177.199 213.857 176.411 200.223 176.411 200.223L130.434 201.177Z" fill="#858585"/>
<path d="M169.289 205.056C169.289 205.056 179.908 202.855 187.043 188.497C196.798 168.872 196.531 147.061 195.933 119.78C195.348 93.4532 189.447 65.9564 189.447 65.9564L156.532 48.1763L169.289 205.056Z" fill="#437687"/>
<path d="M178.166 168.427L174.439 161.165L179.489 157.363C179.489 157.363 184.449 155.582 188.086 154.259C191.724 152.937 195.793 150.622 195.793 150.622L194.814 162.234C194.814 162.234 190.083 164.37 186.484 165.782C182.427 167.372 178.166 168.427 178.166 168.427Z" fill="#3F545F"/>
<path d="M117.296 66.0204C117.296 66.0204 112.158 85.3522 111.217 119.488C110.365 150.253 112.184 175.499 120.858 189.845C128.132 201.851 135.242 206.442 146.943 207.384C159.317 208.388 169.301 205.043 169.301 205.043C169.301 205.043 174.389 200.109 179.209 163.111C185.212 116.944 172.481 62.4212 172.481 62.4212L117.296 66.0204Z" fill="#8DAFBF"/>
<path d="M175.241 73.4481C175.241 73.4481 160.055 79.5528 141.868 76.5513C123.808 73.5752 117.296 65.868 117.296 65.868C117.296 65.868 118.657 54.6124 127.178 34.7719C132.914 21.4305 143.954 6.49928 151.394 5.3928C158.834 4.28631 167.521 27.3699 167.521 27.3699L179.794 65.868L175.241 73.4481Z" fill="#D83F22"/>
<path d="M178.484 168.288C178.484 168.288 164.596 172.79 152.068 171.964C128.399 170.425 112.273 158.877 112.273 158.877L111.306 146.794C111.306 146.794 127.395 160.11 151.966 160.95C167.979 161.496 179.845 157.21 179.845 157.21C179.845 157.21 179.59 160.186 179.183 163.239C178.929 165.197 178.484 168.288 178.484 168.288Z" fill="#6896A5"/>
<path d="M189.447 65.9562C189.447 65.9562 188.315 53.7848 178.547 33.5628C164.939 5.35378 152.246 5.37922 152.246 5.37922C152.246 5.37922 160.042 17.4743 166.402 38.7646C171.489 55.8325 174.783 73.6253 174.783 73.6253C174.783 73.6253 180.57 71.425 183.355 69.8861C186.865 67.9529 189.447 65.9562 189.447 65.9562Z" fill="#A02422"/>
<path d="M128.756 190.698C131.986 190.621 132.838 186.462 130.612 180.955C128.399 175.436 126.212 173.299 124.024 173.655C121.303 174.087 121.163 179.238 122.231 182.621C123.427 186.361 126.314 190.748 128.756 190.698Z" fill="#B3E1EE"/>
<path d="M123.172 70.2939C123.172 70.2939 120.451 86.9294 119.586 106.719C118.797 124.881 119.306 137.955 120.018 140.397C120.794 143.004 123.172 145.408 125.105 145.917C127.039 146.425 129.252 145.484 129.62 142.979C129.977 140.46 128.895 118.903 130.053 101.568C131.108 85.7084 132.94 74.4909 132.94 74.4909C132.94 74.4909 130.905 67.1652 129.404 66.5293C127.891 65.8807 123.172 70.2939 123.172 70.2939Z" fill="#B3E1EE"/>
<path d="M123.172 70.2932C123.172 70.2932 124.838 57.664 128.768 46.0268C132.418 35.2036 136.628 25.0163 140.52 26.3136C144.221 27.5472 139.515 38.9682 136.946 50.5927C134.377 62.2171 132.953 74.4521 132.953 74.4521C132.953 74.4521 130.002 73.5873 127.56 72.4935C126.056 71.845 124.591 71.1103 123.172 70.2932Z" fill="#ED6A65"/>
<path d="M153.391 88.7091C139.782 89.2687 131.681 100.88 132.622 111.538C133.614 122.501 143.114 131.264 154.497 130.87C164.837 130.501 175.928 121.675 174.936 108.677C174.071 97.1286 164.519 88.2386 153.391 88.7091Z" fill="#E1E1E1"/>
<path d="M138.587 110.177C138.51 118.521 146.93 126.482 155.68 125.21C163.324 124.104 169.365 117.732 169.276 109.86C169.187 101.987 161.95 94.7503 154.561 94.6612C146.078 94.5722 138.676 100.626 138.587 110.177Z" fill="#3F545F"/>
<path d="M150.911 186.932C150.911 186.932 150.796 171.073 152.526 171.073C154.256 171.073 158.987 176.033 160.615 185.19C162.23 194.36 163.527 212.267 163.425 225.316C163.311 238.174 161.454 254.606 160.462 255.344C159.686 255.916 155.591 257.29 153.175 257.061C150.796 256.819 147.795 247.433 147.032 244.101C146.281 240.756 150.911 186.932 150.911 186.932Z" fill="#A02524"/>
<path d="M146.065 255.267C147.795 257.2 153.264 257.073 153.264 257.073L152.539 171.085C152.539 171.085 148.291 170.831 146.065 180.357C143.827 189.972 143.064 199.587 142.822 214.658C142.504 235.681 144.335 253.334 146.065 255.267Z" fill="#CA2C31"/>
<path d="M60.7639 175.486C60.7639 178.31 62.9641 180.637 65.8385 180.357C68.3948 180.116 69.921 177.089 69.7302 175.194C69.5395 173.299 67.1739 171.136 64.9227 171.149C62.6589 171.149 60.7766 173.769 60.7639 175.486Z" fill="white"/>
<path opacity="0.5" d="M87.0398 145.903C87.1543 148.154 89.2528 149.566 90.8934 149.223C92.5341 148.879 93.9585 147.328 93.7932 145.712C93.6406 144.262 92.1144 142.584 90.1303 142.584C88.4134 142.596 86.9635 144.453 87.0398 145.903Z" fill="white"/>
<path d="M75.3009 97.2055C75.3009 97.2055 72.4266 91.2279 73.2914 90.2613C74.169 89.282 79.9812 92.4234 79.9812 92.4234C79.9812 92.4234 84.6233 87.883 85.6026 88.2519C86.8618 88.7224 86.4293 94.9544 86.4293 94.9544C86.4293 94.9544 91.8346 98.1975 91.8473 99.2277C91.8473 100.372 85.6154 102.051 85.6154 102.051C85.6154 102.051 84.3817 108.957 82.7283 109.059C81.2912 109.148 78.3024 102.98 78.3024 102.98C78.3024 102.98 71.7016 104.01 71.1293 103.03C70.328 101.644 75.3009 97.2055 75.3009 97.2055Z" fill="white"/>
<path d="M234.152 150.597C236.543 149.91 237.993 147.493 237.064 145.141C236.25 143.029 233.312 142.482 231.761 143.093C230.209 143.703 228.937 146.222 229.484 148.142C230.031 150.037 232.714 151.016 234.152 150.597Z" fill="white"/>
<path d="M218.496 91.2396C216.257 90.7563 213.917 92.2062 213.777 94.5337C213.65 96.7975 215.621 98.1838 217.148 98.3618C218.674 98.5399 220.798 97.0519 221.192 95.2586C221.586 93.4653 219.844 91.5194 218.496 91.2396Z" fill="white"/>
</svg>
