<svg width="27" height="20" viewBox="0 0 27 20" fill="none" xmlns="http://www.w3.org/2000/svg">
<g id="Vector">
<path d="M17.3 1V3.57143V1ZM17.3 8.71429V11.2857V8.71429ZM17.3 16.4286V19V16.4286ZM3.3 1C2.55739 1 1.8452 1.27092 1.3201 1.75315C0.794999 2.23539 0.5 2.88944 0.5 3.57143V7.42857C1.24261 7.42857 1.9548 7.69949 2.4799 8.18173C3.005 8.66396 3.3 9.31802 3.3 10C3.3 10.682 3.005 11.336 2.4799 11.8183C1.9548 12.3005 1.24261 12.5714 0.5 12.5714V16.4286C0.5 17.1106 0.794999 17.7646 1.3201 18.2468C1.8452 18.7291 2.55739 19 3.3 19H22.9C23.6426 19 24.3548 18.7291 24.8799 18.2468C25.405 17.7646 25.7 17.1106 25.7 16.4286V12.5714C24.9574 12.5714 24.2452 12.3005 23.7201 11.8183C23.195 11.336 22.9 10.682 22.9 10C22.9 9.31802 23.195 8.66396 23.7201 8.18173C24.2452 7.69949 24.9574 7.42857 25.7 7.42857V3.57143C25.7 2.88944 25.405 2.23539 24.8799 1.75315C24.3548 1.27092 23.6426 1 22.9 1H3.3Z" fill="#12B579"/>
<path d="M17.3 1V3.57143M17.3 8.71429V11.2857M17.3 16.4286V19M3.3 1C2.55739 1 1.8452 1.27092 1.3201 1.75315C0.794999 2.23539 0.5 2.88944 0.5 3.57143V7.42857C1.24261 7.42857 1.9548 7.69949 2.4799 8.18173C3.005 8.66396 3.3 9.31802 3.3 10C3.3 10.682 3.005 11.336 2.4799 11.8183C1.9548 12.3005 1.24261 12.5714 0.5 12.5714V16.4286C0.5 17.1106 0.794999 17.7646 1.3201 18.2468C1.8452 18.7291 2.55739 19 3.3 19H22.9C23.6426 19 24.3548 18.7291 24.8799 18.2468C25.405 17.7646 25.7 17.1106 25.7 16.4286V12.5714C24.9574 12.5714 24.2452 12.3005 23.7201 11.8183C23.195 11.336 22.9 10.682 22.9 10C22.9 9.31802 23.195 8.66396 23.7201 8.18173C24.2452 7.69949 24.9574 7.42857 25.7 7.42857V3.57143C25.7 2.88944 25.405 2.23539 24.8799 1.75315C24.3548 1.27092 23.6426 1 22.9 1H3.3Z" stroke="white" stroke-linecap="round" stroke-linejoin="round"/>
</g>
</svg>
