<svg width="113" height="113" viewBox="0 0 113 113" fill="none" xmlns="http://www.w3.org/2000/svg">
<g id="Frame">
<path id="Vector" fill-rule="evenodd" clip-rule="evenodd" d="M69.4547 12.5107H12.5511C9.3401 12.5107 6.2606 13.7863 3.99007 16.0568C1.71954 18.3274 0.44397 21.4069 0.44397 24.6179V40.7607C0.445511 41.6528 0.742583 42.5192 1.28875 43.2246C1.83492 43.9299 2.59939 44.4344 3.46268 44.6592C6.07454 45.3506 8.3844 46.8863 10.0324 49.0273C11.6804 51.1683 12.5741 53.7942 12.5741 56.496C12.5741 59.1978 11.6804 61.8237 10.0324 63.9647C8.3844 66.1057 6.07454 67.6414 3.46268 68.3327C2.59956 68.5594 1.8359 69.0658 1.29116 69.7726C0.746424 70.4795 0.451331 71.3469 0.452041 72.2393V88.3741C0.452041 91.5851 1.72761 94.6646 3.99814 96.9351C6.26867 99.2057 9.34817 100.481 12.5592 100.481H69.4628V86.6387C69.4628 85.3008 69.9942 84.0177 70.9403 83.0716C71.8864 82.1256 73.1695 81.5941 74.5074 81.5941C75.8453 81.5941 77.1284 82.1256 78.0745 83.0716C79.0206 84.0177 79.552 85.3008 79.552 86.6387V100.481H100.441C103.652 100.481 106.731 99.2057 109.002 96.9351C111.272 94.6646 112.548 91.5851 112.548 88.3741V72.207C112.549 71.3203 112.258 70.4579 111.719 69.7533C111.181 69.0486 110.425 68.5409 109.57 68.3085C106.982 67.599 104.699 66.0591 103.072 63.9256C101.445 61.7922 100.563 59.1832 100.563 56.5C100.563 53.8168 101.445 51.2079 103.072 49.0744C104.699 46.941 106.982 45.4011 109.57 44.6915C110.427 44.4607 111.184 43.9536 111.724 43.2488C112.264 42.544 112.556 41.6809 112.556 40.793V24.626C112.556 21.4149 111.281 18.3354 109.01 16.0649C106.739 13.7944 103.66 12.5188 100.449 12.5188H79.544V26.4259C79.544 27.7638 79.0125 29.0469 78.0664 29.993C77.1204 30.939 75.8372 31.4705 74.4993 31.4705C73.1614 31.4705 71.8783 30.939 70.9322 29.993C69.9862 29.0469 69.4547 27.7638 69.4547 26.4259V12.5107ZM74.4993 43.3113C77.292 43.3113 79.544 45.5713 79.544 48.356V64.628C79.544 65.9659 79.0125 67.249 78.0664 68.1951C77.1204 69.1411 75.8372 69.6726 74.4993 69.6726C73.1614 69.6726 71.8783 69.1411 70.9322 68.1951C69.9862 67.249 69.4547 65.9659 69.4547 64.628V48.356C69.4547 45.5713 71.7147 43.3113 74.4993 43.3113Z" fill="#12B579"/>
<g id="Group">
<g id="Group_2">
<path id="Vector_2" d="M41 35C28.8692 35 19 44.8692 19 57C19 69.1308 28.8692 79 41 79C53.1308 79 63 69.1308 63 57C63 44.8692 53.1308 35 41 35ZM41 76.1305C30.4515 76.1305 21.8695 67.5486 21.8695 57C21.8695 46.4514 30.4515 37.8695 41 37.8695C51.5485 37.8695 60.1305 46.4515 60.1305 57C60.1305 67.5485 51.5485 76.1305 41 76.1305Z" fill="white"/>
</g>
</g>
<g id="Group_3">
<g id="Group_4">
<path id="Vector_3" d="M50.7614 49.2853C49.1056 47.5717 46.427 47.5714 44.7711 49.2854L37.882 56.4152L35.2289 53.6694C33.5773 51.9601 30.8902 51.9601 29.2386 53.6694C27.5871 55.3786 27.5871 58.1598 29.2386 59.8691L34.8868 65.7146C36.5426 67.4283 39.2211 67.4286 40.8772 65.7146L50.7615 55.485C52.4129 53.7757 52.4129 50.9945 50.7614 49.2853ZM48.7644 53.4183L38.8801 63.648C38.3278 64.2195 37.4359 64.2194 36.8836 63.648L31.2354 57.8024C30.6849 57.2327 30.6849 56.3059 31.2354 55.7361C31.7859 55.1664 32.6813 55.1664 33.2319 55.7361L37.8819 60.5485L46.768 51.352C47.3185 50.7822 48.2139 50.7822 48.7645 51.352C49.3149 51.9217 49.3149 52.8486 48.7644 53.4183Z" fill="white"/>
</g>
</g>
</g>
</svg>
