<svg width="334" height="664" viewBox="0 0 334 664" fill="none" xmlns="http://www.w3.org/2000/svg">
<path d="M12.5198 0C2.18021 0 -0.131153 6.56339 0.00561433 9.84508L0.00560961 136.806C0.00560961 141.728 2.67257 141.318 11.9043 146.446C21.1361 151.573 21.9567 160.598 22.1619 166.136C22.367 171.674 16.6228 181.724 8.41678 185.006C1.85196 187.631 0.0739931 190.748 0.00560961 191.979V651.621C0.00560961 659.662 4.51892 662.629 6.77558 663.107C8.00648 663.176 10.9196 663.354 12.7249 663.518C14.9816 663.723 18.0589 664.953 23.8031 660.441C29.5473 655.929 35.7018 658.185 38.5739 661.056C40.8716 663.354 45.1387 663.928 46.9851 663.928C49.7204 663.928 55.8066 663.23 58.2684 660.441C61.3456 656.954 70.1671 657.98 72.6289 661.056C74.5984 663.518 79.3305 663.996 81.4504 663.928C82.7497 664.065 86.7022 663.559 92.1182 660.441C98.8882 656.544 102.581 657.98 106.889 661.056C110.336 663.518 114.206 663.859 115.711 663.723C117.352 663.859 121.66 663.436 125.763 660.646C130.892 657.159 137.046 657.98 140.534 661.056C143.324 663.518 147.988 663.859 149.971 663.723C151.544 663.654 155.756 662.861 160.023 660.236C165.357 656.954 171.306 658.185 174.589 661.056C177.215 663.354 182.248 663.791 184.436 663.723C185.325 663.928 188.58 663.518 194.488 660.236C201.874 656.134 206.592 659.21 209.875 661.672C212.501 663.641 216.303 663.996 217.876 663.928C219.517 663.928 223.825 663.271 227.928 660.646C233.057 657.364 237.98 657.364 242.288 660.646C245.735 663.271 249.879 663.928 251.52 663.928C252.956 664.201 257.223 663.846 262.804 660.236C269.779 655.724 273.676 659.005 276.549 660.646C279.421 662.287 281.267 663.518 285.575 663.928C289.883 664.338 292.55 662.902 297.884 659.415C302.151 656.626 307.184 658.253 309.168 659.415C311.151 660.783 315.445 663.518 316.758 663.518C318.399 663.518 317.168 663.312 325.785 662.902C332.678 662.574 334.128 653.878 333.991 649.57V193.825C333.991 189.313 330.708 187.877 329.272 187.262C327.836 186.646 321.271 182.954 318.81 180.698C316.348 178.442 312.45 174.545 312.245 164.085C312.04 153.624 318.399 148.497 326.4 144.6C332.801 141.482 334.128 138.515 333.991 137.421V12.5115C333.991 2.83046 326.605 0.136737 322.913 0H12.5198Z" fill="white"/>
</svg>
