<svg width="27" height="20" viewBox="0 0 27 20" fill="none" xmlns="http://www.w3.org/2000/svg">
<path id="Vector" d="M17.8 1V3.57143M17.8 8.71429V11.2857M17.8 16.4286V19M3.8 1C3.05739 1 2.3452 1.27092 1.8201 1.75315C1.295 2.23539 1 2.88944 1 3.57143V7.42857C1.74261 7.42857 2.4548 7.69949 2.9799 8.18173C3.505 8.66396 3.8 9.31801 3.8 10C3.8 10.682 3.505 11.336 2.9799 11.8183C2.4548 12.3005 1.74261 12.5714 1 12.5714V16.4286C1 17.1106 1.295 17.7646 1.8201 18.2468C2.3452 18.7291 3.05739 19 3.8 19H23.4C24.1426 19 24.8548 18.7291 25.3799 18.2468C25.905 17.7646 26.2 17.1106 26.2 16.4286V12.5714C25.4574 12.5714 24.7452 12.3005 24.2201 11.8183C23.695 11.336 23.4 10.682 23.4 10C23.4 9.31801 23.695 8.66396 24.2201 8.18173C24.7452 7.69949 25.4574 7.42857 26.2 7.42857V3.57143C26.2 2.88944 25.905 2.23539 25.3799 1.75315C24.8548 1.27092 24.1426 1 23.4 1H3.8Z" stroke="black" stroke-opacity="0.2" stroke-width="1.6" stroke-linecap="round" stroke-linejoin="round"/>
</svg>
