<svg width="20" height="23" viewBox="0 0 20 23" fill="none" xmlns="http://www.w3.org/2000/svg">
<path id="Vector" d="M2.61092 23V21.6622C1.89312 21.6622 1.27878 21.4504 0.767917 21.0268C0.255972 20.6041 0 20.0957 0 19.5018V6.43192C0 5.83796 0.255972 5.32961 0.767917 4.90688C1.27878 4.48326 1.89312 4.27145 2.61092 4.27145H6.31147V1.03007C6.31147 0.753602 6.43541 0.512806 6.6833 0.307684C6.93119 0.102561 7.22219 0 7.5563 0H11.8453C12.1794 0 12.4704 0.102561 12.7183 0.307684C12.9662 0.512806 13.0901 0.753602 13.0901 1.03007V4.27145H16.7891C17.5069 4.27145 18.1212 4.48326 18.6321 4.90688C19.144 5.32961 19.4 5.83796 19.4 6.43192V19.5018C19.4 20.0957 19.144 20.6041 18.6321 21.0268C18.1212 21.4504 17.5069 21.6622 16.7891 21.6622V23H15.1724V21.6622H4.22758V23H2.61092ZM7.92813 4.27145H11.4719V1.33909H7.92813V4.27145ZM9.7 11.4753C11.1281 11.4753 12.5227 11.3245 13.8839 11.0231C15.2452 10.7216 16.545 10.2704 17.7833 9.66928V6.43192C17.7833 6.19202 17.6901 5.99492 17.5036 5.84063C17.3172 5.68635 17.079 5.6092 16.7891 5.6092H2.61092C2.32099 5.6092 2.08281 5.68635 1.89635 5.84063C1.70989 5.99492 1.61667 6.19202 1.61667 6.43192V9.66928C2.85611 10.2713 4.15645 10.7225 5.51768 11.0231C6.87892 11.3236 8.27302 11.4744 9.7 11.4753ZM8.89167 14.1508V12.797C7.6145 12.7203 6.36967 12.553 5.15717 12.2953C3.94467 12.0384 2.7645 11.6692 1.61667 11.1876V19.5031C1.61667 19.743 1.70989 19.9401 1.89635 20.0944C2.08281 20.2487 2.32099 20.3258 2.61092 20.3258H16.7891C17.079 20.3258 17.3172 20.2487 17.5036 20.0944C17.6901 19.9401 17.7833 19.743 17.7833 19.5031V11.1876C16.6355 11.6692 15.4553 12.0393 14.2428 12.298C13.0303 12.5548 11.7855 12.7216 10.5083 12.7983V14.1521L8.89167 14.1508Z" fill="black" fill-opacity="0.2"/>
</svg>
