<svg width="20" height="23" viewBox="0 0 20 23" fill="none" xmlns="http://www.w3.org/2000/svg">
<path id="Vector" d="M7.92813 4.27145H11.4719V1.33909H7.92813V4.27145ZM9.7 11.4753C7.96262 11.4753 6.28398 11.2269 4.66408 10.7301C3.04203 10.2325 1.48733 9.60106 0 8.83586V6.43192C0 5.83796 0.255972 5.32961 0.767917 4.90688C1.27878 4.48326 1.89312 4.27145 2.61092 4.27145H6.31147V1.03007C6.31147 0.753602 6.43541 0.512806 6.6833 0.307684C6.93119 0.102561 7.22219 0 7.5563 0H11.8453C12.1794 0 12.4704 0.102561 12.7183 0.307684C12.9662 0.512806 13.0901 0.753602 13.0901 1.03007V4.27145H16.7891C17.5069 4.27145 18.1212 4.48326 18.6321 4.90688C19.144 5.32961 19.4 5.83796 19.4 6.43192V8.83586C17.9127 9.60284 16.358 10.2343 14.7359 10.7301C13.116 11.2269 11.4374 11.4753 9.7 11.4753ZM2.61092 23V21.6622C1.89312 21.6622 1.27878 21.4504 0.767917 21.0268C0.255972 20.6041 0 20.0957 0 19.5018V10.405C1.38494 11.0597 2.81677 11.5992 4.29548 12.0237C5.77419 12.4465 7.30626 12.7042 8.89167 12.797V14.1508H10.5083V12.797C12.0937 12.7042 13.6258 12.446 15.1045 12.0224C16.5832 11.5988 18.0151 11.0592 19.4 10.4037V19.5004C19.4 20.0953 19.144 20.6041 18.6321 21.0268C18.1212 21.4504 17.5069 21.6622 16.7891 21.6622V23H15.1724V21.6622H4.22758V23H2.61092Z" fill="#12B579"/>
</svg>
